<?xml version="1.0" standalone="no"?><!DOCTYPE svg PUBLIC "-//W3C//DTD SVG 1.1//EN" "http://www.w3.org/Graphics/SVG/1.1/DTD/svg11.dtd"><svg t="1606918633246" class="icon" viewBox="0 0 1024 1024" version="1.1" xmlns="http://www.w3.org/2000/svg" p-id="4209" xmlns:xlink="http://www.w3.org/1999/xlink" width="200" height="200"><defs><style type="text/css"></style></defs><path d="M848.293314 342.880608c-20.683421 0-38.909406 16.041597-38.909406 35.769349v534.90194c0 19.796014-17.202053 35.291514-37.885475 35.291513H246.426238c-20.683421 0-38.021999-15.632025-38.021998-35.291513v-536.540231A35.291514 35.291514 0 0 0 172.430105 341.310579 35.291514 35.291514 0 0 0 136.524232 377.079928v536.335444C136.524232 972.530365 184.307713 1023.931738 246.426238 1023.931738h525.20872c62.050263 0 115.772548-51.469635 115.772548-110.516366V378.513432c-0.136524-19.591227-18.362509-35.632824-39.114192-35.632824z" fill="#1296db" p-id="4210"></path><path d="M435.921872 781.737751V370.390241c0-20.615159-14.744617-37.407639-34.950203-37.40764-20.205586 0-35.018465 16.655956-35.018466 37.40764v411.34751c0 20.615159 14.812879 37.407639 35.018466 37.407639 20.205586 0 34.950203-16.792481 34.950203-37.407639z m221.988401 0V370.390241a38.226785 38.226785 0 0 0-38.021999-37.40764 38.226785 38.226785 0 0 0-37.953736 37.40764v411.34751c0 20.615159 17.74815 37.407639 37.953736 37.407639a38.226785 38.226785 0 0 0 38.021999-37.407639z m329.296447-596.679155h-182.328112V108.673288C804.810346 46.827811 755.59336 0 695.590961 0H329.023398c-60.411973 0-110.038531 46.827811-110.03853 108.673288v76.385308H36.588494A35.564562 35.564562 0 0 0 0 220.827945c0 20.683421 16.314646 35.769349 36.588494 35.769349h950.75475A35.632824 35.632824 0 0 0 1023.931738 220.827945a35.632824 35.632824 0 0 0-36.725018-35.769349z m-258.303847 0h-438.925405V108.673288c0-20.615159 18.976868-37.134591 39.04593-37.134591h366.567563c20.0008 0 33.311913 16.178121 33.311912 37.134591v76.385308z" fill="#1296db" p-id="4211"></path></svg>