<?xml version="1.0" standalone="no"?><!DOCTYPE svg PUBLIC "-//W3C//DTD SVG 1.1//EN" "http://www.w3.org/Graphics/SVG/1.1/DTD/svg11.dtd"><svg t="1606740463265" class="icon" viewBox="0 0 1024 1024" version="1.1" xmlns="http://www.w3.org/2000/svg" p-id="3237" xmlns:xlink="http://www.w3.org/1999/xlink" width="200" height="200"><defs><style type="text/css"></style></defs><path d="M512 1022c-68.8 0-135.6-13.5-198.5-40.1-60.7-25.7-115.3-62.5-162.1-109.3S67.8 771.2 42.1 710.5C15.5 647.6 2 580.8 2 512c0-22.1 17.9-40 40-40s40 17.9 40 40c0 58.1 11.4 114.4 33.8 167.4 21.7 51.2 52.7 97.2 92.2 136.7 39.5 39.5 85.5 70.5 136.7 92.2 53 22.4 109.3 33.8 167.4 33.8s114.4-11.4 167.4-33.8c51.2-21.7 97.2-52.7 136.7-92.2 39.5-39.5 70.5-85.5 92.2-136.7 22.4-53 33.8-109.3 33.8-167.4s-11.4-114.4-33.8-167.4c-21.7-51.2-52.7-97.2-92.2-136.7-39.5-39.5-85.5-70.5-136.7-92.2C626.4 93.4 570.1 82 512 82c-88 0-172.6 26.4-244.6 76.3-70.4 48.8-124.2 116.5-155.5 195.8-8.1 20.5-31.3 30.6-51.9 22.5-20.5-8.1-30.6-31.3-22.5-51.9 37.2-94.1 100.9-174.4 184.4-232.2C307.3 33.3 407.7 2 512 2c68.8 0 135.6 13.5 198.5 40.1 60.7 25.7 115.3 62.5 162.1 109.3s83.6 101.4 109.3 162.1c26.6 62.9 40.1 129.7 40.1 198.5s-13.5 135.6-40.1 198.5c-25.7 60.7-62.5 115.3-109.3 162.1s-101.4 83.6-162.1 109.3c-62.9 26.6-129.7 40.1-198.5 40.1z" fill="#1296db" p-id="3238"></path><path d="M194 388.5H50c-22.1 0-40-17.9-40-40v-149c0-22.1 17.9-40 40-40s40 17.9 40 40v109h104c22.1 0 40 17.9 40 40s-17.9 40-40 40zM658 616H474c-22.1 0-40-17.9-40-40V332c0-22.1 17.9-40 40-40s40 17.9 40 40v204h144c22.1 0 40 17.9 40 40s-17.9 40-40 40z" fill="#1296db" p-id="3239"></path></svg>