<?xml version="1.0" standalone="no"?><!DOCTYPE svg PUBLIC "-//W3C//DTD SVG 1.1//EN" "http://www.w3.org/Graphics/SVG/1.1/DTD/svg11.dtd"><svg t="1606790207941" class="icon" viewBox="0 0 1024 1024" version="1.1" xmlns="http://www.w3.org/2000/svg" p-id="9907" xmlns:xlink="http://www.w3.org/1999/xlink" width="200" height="200"><defs><style type="text/css"></style></defs><path d="M868.2 989.7H157.1c-67.1 0-121.8-54.6-121.8-121.8V156.8C35.3 89.6 89.9 35 157.1 35h711.1C935.3 35 990 89.6 990 156.8v711.1c0 67.1-54.7 121.8-121.8 121.8zM157.1 95c-34.1 0-61.8 27.7-61.8 61.8v711.1c0 34.1 27.7 61.8 61.8 61.8h711.1c34.1 0 61.8-27.7 61.8-61.8V156.8c0-34.1-27.7-61.8-61.8-61.8H157.1z" fill="#1296db" p-id="9908"></path><path d="M810.8 357h-174c-20.5 0-37.3-16.8-37.3-37.3 0-20.5 16.8-37.3 37.3-37.3h174c20.5 0 37.3 16.8 37.3 37.3 0 20.5-16.7 37.3-37.3 37.3zM400.8 357h-174c-20.5 0-37.3-16.8-37.3-37.3 0-20.5 16.8-37.3 37.3-37.3h174c20.5 0 37.3 16.8 37.3 37.3 0 20.5-16.8 37.3-37.3 37.3z" fill="#1296db" p-id="9909"></path><path d="M351.1 232.8v174c0 20.5-16.8 37.3-37.3 37.3-20.5 0-37.3-16.8-37.3-37.3v-174c0-20.5 16.8-37.3 37.3-37.3 20.5 0 37.3 16.7 37.3 37.3zM810.8 630.4h-174c-20.5 0-37.3-16.8-37.3-37.3 0-20.5 16.8-37.3 37.3-37.3h174c20.5 0 37.3 16.8 37.3 37.3 0 20.5-16.7 37.3-37.3 37.3zM810.8 754.6h-174c-20.5 0-37.3-16.8-37.3-37.3 0-20.5 16.8-37.3 37.3-37.3h174c20.5 0 37.3 16.8 37.3 37.3 0 20.6-16.7 37.3-37.3 37.3zM401.7 632.5l-123 123c-14.5 14.5-38.2 14.5-52.7 0s-14.5-38.2 0-52.7l123-123c14.5-14.5 38.2-14.5 52.7 0s14.5 38.2 0 52.7z" fill="#1296db" p-id="9910"></path><path d="M278.7 579.8l123 123c14.5 14.5 14.5 38.2 0 52.7s-38.2 14.5-52.7 0l-123-123c-14.5-14.5-14.5-38.2 0-52.7 14.4-14.5 38.2-14.5 52.7 0z" fill="#1296db" p-id="9911"></path></svg>